<?xml version="1.0" encoding="UTF-8" standalone="no"?>
<svg width="800px" height="800px" viewBox="0 0 800 800" version="1.1" xmlns="http://www.w3.org/2000/svg">
	<g transform="translate(150, 75)" fill="#ECF0F1">
		<path opacity="0.5" d="M250,450 C139.543045,450 50,360.456955 50,250 C50,139.543045 139.543045,50 250,50 C360.456955,50 450,139.543045 450,250 L450,586.621782 C464.708647,595.13028 481.785631,600 500,600 L500,250 C500,111.928806 388.071194,0 250,0 C111.928806,0 0,111.928806 0,250 C0,388.071194 111.928806,500 250,500 C285.555237,500 319.376884,492.577626 350,479.197818 L350,423.243564 C320.582664,440.260573 286.428715,450 250,450 Z"/>
		<path d="M400,499.999925 C400,555.228478 444.771522,600 500,600 L500,650 C417.157283,650 350,582.842717 350,500 L350,361.805328 C323.462176,385.557323 288.417723,400 250,400 C167.157283,400 100,332.842717 100,250 C100,167.157283 167.157283,100 250,100 C332.842717,100 400,167.157283 400,250 L400,499.999925 Z M250,350 C305.228478,350 350,305.228478 350,250 C350,194.771522 305.228478,150 250,150 C194.771522,150 150,194.771522 150,250 C150,305.228478 194.771522,350 250,350 Z"/>
	</g>
</svg>
